<svg width="138" height="138" viewBox="0 0 138 138" fill="none" xmlns="http://www.w3.org/2000/svg">
<path d="M69 69C81.7025 69 92 58.7025 92 46C92 33.2975 81.7025 23 69 23C56.2975 23 46 33.2975 46 46C46 58.7025 56.2975 69 69 69Z" fill="white"/>
<path d="M30.6935 99.59C34.4942 83.536 50.439 74.75 66.9472 74.75H71.0527C87.561 74.75 103.506 83.5302 107.306 99.59C108.042 102.701 108.629 105.955 108.957 109.262C109.273 112.424 106.674 115 103.5 115H34.5C31.326 115 28.727 112.418 29.0432 109.262C29.371 105.955 29.9575 102.701 30.6935 99.59Z" fill="white"/>
</svg>
