<svg width="100" height="100" viewBox="0 0 100 100" fill="none" xmlns="http://www.w3.org/2000/svg">
<path d="M50 70.8334C47.7899 70.8334 45.6703 69.9554 44.1075 68.3926C42.5447 66.8298 41.6667 64.7102 41.6667 62.5C41.6667 57.875 45.375 54.1667 50 54.1667C52.2102 54.1667 54.3298 55.0447 55.8926 56.6075C57.4554 58.1703 58.3334 60.2899 58.3334 62.5C58.3334 64.7102 57.4554 66.8298 55.8926 68.3926C54.3298 69.9554 52.2102 70.8334 50 70.8334ZM75 83.3334V41.6667H25V83.3334H75ZM75 33.3334C77.2102 33.3334 79.3298 34.2113 80.8926 35.7741C82.4554 37.3369 83.3334 39.4565 83.3334 41.6667V83.3334C83.3334 85.5435 82.4554 87.6631 80.8926 89.2259C79.3298 90.7887 77.2102 91.6667 75 91.6667H25C22.7899 91.6667 20.6703 90.7887 19.1075 89.2259C17.5447 87.6631 16.6667 85.5435 16.6667 83.3334V41.6667C16.6667 37.0417 20.375 33.3334 25 33.3334H29.1667V25C29.1667 19.4747 31.3616 14.1756 35.2686 10.2686C39.1756 6.36162 44.4747 4.16669 50 4.16669C52.7359 4.16669 55.445 4.70556 57.9726 5.75253C60.5002 6.7995 62.7969 8.33408 64.7314 10.2686C66.666 12.2032 68.2005 14.4998 69.2475 17.0274C70.2945 19.5551 70.8334 22.2641 70.8334 25V33.3334H75ZM50 12.5C46.6848 12.5 43.5054 13.817 41.1612 16.1612C38.817 18.5054 37.5 21.6848 37.5 25V33.3334H62.5V25C62.5 21.6848 61.1831 18.5054 58.8389 16.1612C56.4947 13.817 53.3152 12.5 50 12.5Z" fill="black"/>
</svg>
