<svg width="100" height="100" viewBox="0 0 100 100" fill="none" xmlns="http://www.w3.org/2000/svg">
<path d="M20.8333 87.5C18.5417 87.5 16.5806 86.6847 14.95 85.0542C13.3194 83.4236 12.5028 81.4611 12.5 79.1667V20.8333C12.5 18.5417 13.3167 16.5806 14.95 14.95C16.5833 13.3194 18.5444 12.5028 20.8333 12.5H79.1667C81.4583 12.5 83.4208 13.3167 85.0542 14.95C86.6875 16.5833 87.5028 18.5444 87.5 20.8333V62.5L62.5 87.5H20.8333ZM58.3333 79.1667L79.1667 58.3333H58.3333V79.1667ZM29.1667 58.3333H50V50H29.1667V58.3333ZM29.1667 41.6667H70.8333V33.3333H29.1667V41.6667Z" fill="white"/>
</svg>
