<svg width="101" height="101" viewBox="0 0 101 101" fill="none" xmlns="http://www.w3.org/2000/svg">
<path d="M50.5 48.3959C47.7097 48.3959 45.0336 47.2874 43.0606 45.3144C41.0876 43.3413 39.9791 40.6653 39.9791 37.875C39.9791 35.0847 41.0876 32.4087 43.0606 30.4357C45.0336 28.4626 47.7097 27.3542 50.5 27.3542C53.2903 27.3542 55.9663 28.4626 57.9393 30.4357C59.9124 32.4087 61.0208 35.0847 61.0208 37.875C61.0208 39.2566 60.7487 40.6247 60.2199 41.9012C59.6912 43.1776 58.9163 44.3374 57.9393 45.3144C56.9624 46.2913 55.8026 47.0663 54.5261 47.595C53.2497 48.1237 51.8816 48.3959 50.5 48.3959ZM50.5 8.41669C42.6871 8.41669 35.1943 11.5203 29.6698 17.0448C24.1453 22.5693 21.0416 30.0622 21.0416 37.875C21.0416 59.9688 50.5 92.5833 50.5 92.5833C50.5 92.5833 79.9583 59.9688 79.9583 37.875C79.9583 30.0622 76.8547 22.5693 71.3301 17.0448C65.8056 11.5203 58.3128 8.41669 50.5 8.41669Z" fill="white"/>
</svg>
