<svg width="100" height="100" viewBox="0 0 100 100" fill="none" xmlns="http://www.w3.org/2000/svg">
<path d="M90.9167 64.25L80.5 82.2917C78.4583 85.875 74.6667 87.75 70.8333 87.5H62.5V95.8333L52.0833 77.0833L62.5 58.3333V66.6667H74.25L65 50.625L83.0417 40.2083L90.5417 53.2083C92.7083 56.4167 93 60.7083 90.9167 64.25ZM38.375 12.75H59.2083C63.2917 12.75 66.8333 15.125 68.5417 18.5417L72.7083 25.7917L79.9167 21.625L68.9167 40L47.4583 40.375L54.6667 36.2083L48.7917 26L39.5833 42.0417L21.5 31.625L29 18.625C30.7083 15.1667 34.25 12.75 38.375 12.75ZM21.0416 82.3333L10.625 64.2917C8.58331 60.75 8.87498 56.5 11 53.2917L15.1666 46.0833L7.95831 41.9167L29.375 42.25L40.4166 60.6667L33.2083 56.5L27.3333 66.6667H45.8333V87.5H30.8333C28.8813 87.6413 26.9287 87.232 25.1977 86.3186C23.4668 85.4052 22.0268 84.0245 21.0416 82.3333Z" fill="#40892D"/>
</svg>
