<svg width="88" height="88" viewBox="0 0 88 88" fill="none" xmlns="http://www.w3.org/2000/svg">
<path d="M71.8667 77L48.7667 53.9C46.9333 55.3667 44.825 56.5278 42.4417 57.3833C40.0583 58.2389 37.5222 58.6667 34.8333 58.6667C28.1722 58.6667 22.5353 56.3591 17.9227 51.744C13.31 47.1289 11.0024 41.492 11 34.8333C10.9976 28.1747 13.3051 22.5378 17.9227 17.9227C22.5402 13.3076 28.1771 11 34.8333 11C41.4896 11 47.1277 13.3076 51.7477 17.9227C56.3677 22.5378 58.674 28.1747 58.6667 34.8333C58.6667 37.5222 58.2389 40.0583 57.3833 42.4417C56.5278 44.825 55.3667 46.9333 53.9 48.7667L77 71.8667L71.8667 77ZM34.8333 51.3333C39.4167 51.3333 43.3131 49.7298 46.5227 46.5227C49.7322 43.3156 51.3358 39.4191 51.3333 34.8333C51.3309 30.2476 49.7273 26.3523 46.5227 23.1477C43.318 19.943 39.4216 18.3382 34.8333 18.3333C30.2451 18.3284 26.3499 19.9332 23.1477 23.1477C19.9454 26.3621 18.3407 30.2573 18.3333 34.8333C18.326 39.4093 19.9308 43.3058 23.1477 46.5227C26.3646 49.7396 30.2598 51.3431 34.8333 51.3333Z" fill="#40892D"/>
</svg>
