<svg width="100" height="100" viewBox="0 0 100 100" fill="none" xmlns="http://www.w3.org/2000/svg">
<path d="M91.5195 44.8633L73.9414 60.0313L79.2969 82.7149C79.5924 83.9462 79.5163 85.2376 79.0782 86.4257C78.6402 87.6139 77.8598 88.6456 76.8357 89.3905C75.8116 90.1353 74.5897 90.56 73.3244 90.6108C72.0591 90.6615 70.8071 90.3362 69.7266 89.6758L50 77.5352L30.2617 89.6758C29.1814 90.3324 27.9309 90.6547 26.6677 90.602C25.4046 90.5493 24.1853 90.1241 23.1633 89.3799C22.1413 88.6357 21.3624 87.6057 20.9246 86.4197C20.4868 85.2336 20.4098 83.9446 20.7031 82.7149L26.0781 60.0313L8.5 44.8633C7.54413 44.0372 6.85283 42.9477 6.51243 41.731C6.17203 40.5144 6.19762 39.2244 6.586 38.0221C6.97438 36.8199 7.70833 35.7588 8.69621 34.9712C9.68408 34.1836 10.8821 33.7045 12.1406 33.5938L35.1875 31.7344L44.0781 10.2188C44.5593 9.04617 45.3784 8.04316 46.4311 7.33726C47.4839 6.63137 48.7227 6.25446 49.9902 6.25446C51.2577 6.25446 52.4966 6.63137 53.5493 7.33726C54.6021 8.04316 55.4211 9.04617 55.9023 10.2188L64.7891 31.7344L87.8359 33.5938C89.097 33.7004 90.2985 34.1768 91.2899 34.9633C92.2814 35.7498 93.0187 36.8114 93.4095 38.0151C93.8003 39.2187 93.8272 40.511 93.4868 41.7299C93.1465 42.9488 92.454 44.0401 91.4961 44.8672L91.5195 44.8633Z" fill="#FFC700"/>
</svg>
