<svg width="100" height="100" viewBox="0 0 100 100" fill="none" xmlns="http://www.w3.org/2000/svg">
<path d="M70.8333 33.3333H83.3333L95.8333 50.2333V75H87.3541C86.8524 78.4712 85.1169 81.6456 82.4654 83.9414C79.8139 86.2372 76.424 87.5009 72.9166 87.5009C69.4093 87.5009 66.0194 86.2372 63.3679 83.9414C60.7164 81.6456 58.9808 78.4712 58.4791 75H37.3541C36.8588 78.4762 35.1259 81.657 32.4736 83.9581C29.8214 86.2592 26.428 87.5261 22.9166 87.5261C19.4053 87.5261 16.0119 86.2592 13.3596 83.9581C10.7074 81.657 8.97446 78.4762 8.47913 75H4.16663V25C4.16663 23.8949 4.60561 22.8351 5.38701 22.0537C6.16842 21.2723 7.22822 20.8333 8.33329 20.8333H66.6666C67.7717 20.8333 68.8315 21.2723 69.6129 22.0537C70.3943 22.8351 70.8333 23.8949 70.8333 25V33.3333ZM70.8333 41.6666V54.1666H87.5V52.9791L79.1333 41.6666H70.8333Z" fill="white"/>
</svg>
