<svg width="100" height="100" viewBox="0 0 100 100" fill="none" xmlns="http://www.w3.org/2000/svg">
<path d="M46.875 32.6959C42.975 33.7625 40.625 36.7584 40.625 39.5834C40.625 42.4084 42.975 45.4042 46.875 46.4667V32.6959ZM53.125 53.5334V67.3C57.025 66.2375 59.375 63.2417 59.375 60.4167C59.375 57.5917 57.025 54.5959 53.125 53.5334Z" fill="white"/>
<path fill-rule="evenodd" clip-rule="evenodd" d="M91.6667 50C91.6667 73.0125 73.0125 91.6666 50 91.6666C26.9875 91.6666 8.33337 73.0125 8.33337 50C8.33337 26.9875 26.9875 8.33331 50 8.33331C73.0125 8.33331 91.6667 26.9875 91.6667 50ZM50 21.875C50.8288 21.875 51.6237 22.2042 52.2097 22.7903C52.7958 23.3763 53.125 24.1712 53.125 25V26.3208C59.9167 27.5375 65.625 32.6416 65.625 39.5833C65.625 40.4121 65.2958 41.207 64.7097 41.793C64.1237 42.3791 63.3288 42.7083 62.5 42.7083C61.6712 42.7083 60.8764 42.3791 60.2903 41.793C59.7043 41.207 59.375 40.4121 59.375 39.5833C59.375 36.7583 57.025 33.7625 53.125 32.6958V47.1541C59.9167 48.3708 65.625 53.475 65.625 60.4166C65.625 67.3583 59.9167 72.4625 53.125 73.6791V75C53.125 75.8288 52.7958 76.6236 52.2097 77.2097C51.6237 77.7957 50.8288 78.125 50 78.125C49.1712 78.125 48.3764 77.7957 47.7903 77.2097C47.2043 76.6236 46.875 75.8288 46.875 75V73.6791C40.0834 72.4625 34.375 67.3583 34.375 60.4166C34.375 59.5878 34.7043 58.793 35.2903 58.2069C35.8764 57.6209 36.6712 57.2916 37.5 57.2916C38.3288 57.2916 39.1237 57.6209 39.7097 58.2069C40.2958 58.793 40.625 59.5878 40.625 60.4166C40.625 63.2416 42.975 66.2375 46.875 67.3V52.8458C40.0834 51.6291 34.375 46.525 34.375 39.5833C34.375 32.6416 40.0834 27.5375 46.875 26.3208V25C46.875 24.1712 47.2043 23.3763 47.7903 22.7903C48.3764 22.2042 49.1712 21.875 50 21.875Z" fill="white"/>
</svg>
