<svg width="100" height="100" viewBox="0 0 100 100" fill="none" xmlns="http://www.w3.org/2000/svg">
<path d="M92.6875 38.2305C92.3528 37.1716 91.7074 36.2379 90.8353 35.5504C89.9632 34.8628 88.9046 34.4533 87.7969 34.375L64.2617 32.4727L55.1914 10.5195C54.7682 9.49054 54.0488 8.61052 53.1245 7.99121C52.2002 7.37191 51.1126 7.04126 50 7.04126C48.8874 7.04126 47.7999 7.37191 46.8756 7.99121C45.9512 8.61052 45.2318 9.49054 44.8086 10.5195L35.7383 32.4649L12.2031 34.375C11.0945 34.4539 10.0351 34.8646 9.16294 35.5536C8.29074 36.2425 7.64599 37.178 7.31252 38.2383C6.96492 39.2958 6.93819 40.4325 7.23572 41.5051C7.53326 42.5778 8.14172 43.5383 8.9844 44.2656L26.9531 59.7383L21.4844 82.8828C21.2278 83.9659 21.2983 85.1009 21.687 86.1439C22.0757 87.1869 22.7651 88.0912 23.668 88.7422C24.5597 89.4028 25.6302 89.7787 26.7392 89.8205C27.8481 89.8623 28.9439 89.5682 29.8828 88.9766L50 76.6094L70.1485 88.9961C71.0874 89.5877 72.1831 89.8819 73.2921 89.84C74.4011 89.7982 75.4716 89.4224 76.3633 88.7617C77.2662 88.1107 77.9556 87.2064 78.3443 86.1634C78.733 85.1204 78.8035 83.9855 78.5469 82.9024L73.0781 59.7578L91.0156 44.2656C91.8598 43.5377 92.4692 42.5758 92.7668 41.5016C93.0644 40.4274 93.0368 39.289 92.6875 38.2305ZM87.9453 40.7188L68.9258 57.125C68.6013 57.405 68.3598 57.7687 68.2275 58.1764C68.0953 58.5841 68.0774 59.0203 68.1758 59.4375L73.9883 83.9649C74.0392 84.15 74.0308 84.3464 73.9642 84.5265C73.8976 84.7066 73.7763 84.8612 73.6172 84.9688C73.4731 85.0802 73.2977 85.1439 73.1157 85.1509C72.9336 85.1579 72.7539 85.1079 72.6016 85.0078L51.2266 71.875C50.8576 71.6484 50.433 71.5284 50 71.5284C49.567 71.5284 49.1425 71.6484 48.7735 71.875L27.3985 85.0039C27.2462 85.104 27.0665 85.154 26.8844 85.147C26.7023 85.14 26.527 85.0763 26.3828 84.9648C26.2203 84.86 26.0949 84.7065 26.0248 84.5262C25.9546 84.3459 25.9432 84.1481 25.9922 83.9609L31.8047 59.4336C31.9031 59.0164 31.8852 58.5802 31.753 58.1725C31.6207 57.7648 31.3792 57.4011 31.0547 57.1211L12.0352 40.7149C11.886 40.5933 11.7783 40.4284 11.7272 40.2428C11.6761 40.0573 11.6841 39.8605 11.75 39.6797C11.801 39.5015 11.9063 39.3436 12.0512 39.2281C12.1961 39.1125 12.3735 39.0451 12.5586 39.0352L37.5274 37.0195C37.9576 36.9846 38.3699 36.8315 38.7186 36.5772C39.0674 36.3228 39.3392 35.9771 39.5039 35.5781L49.125 12.2969C49.1921 12.1245 49.3097 11.9765 49.4623 11.8721C49.6149 11.7677 49.7956 11.7118 49.9805 11.7118C50.1654 11.7118 50.346 11.7677 50.4987 11.8721C50.6513 11.9765 50.7689 12.1245 50.836 12.2969L60.4571 35.5781C60.6218 35.9771 60.8936 36.3228 61.2424 36.5772C61.5911 36.8315 62.0034 36.9846 62.4336 37.0195L87.4024 39.0352C87.5875 39.0451 87.7648 39.1125 87.9098 39.2281C88.0547 39.3436 88.16 39.5015 88.211 39.6797C88.28 39.859 88.2915 40.0554 88.2439 40.2416C88.1963 40.4278 88.092 40.5946 87.9453 40.7188Z" fill="#FFC700"/>
</svg>
