<svg width="100" height="100" viewBox="0 0 100 100" fill="none" xmlns="http://www.w3.org/2000/svg">
<path fill-rule="evenodd" clip-rule="evenodd" d="M28.3437 18.75C28.9784 14.3425 30.9431 10.2336 33.9753 6.97249C37.0075 3.71135 40.9627 1.45328 45.3125 0.5V10.9375C45.3125 12.1807 45.8064 13.373 46.6854 14.2521C47.5645 15.1311 48.7568 15.625 50 15.625C51.2432 15.625 52.4355 15.1311 53.3146 14.2521C54.1936 13.373 54.6875 12.1807 54.6875 10.9375V0.5C59.0373 1.45328 62.9925 3.71135 66.0247 6.97249C69.0569 10.2336 71.0216 14.3425 71.6563 18.75H73.4375C74.6807 18.75 75.873 19.2439 76.7521 20.1229C77.6311 21.002 78.125 22.1943 78.125 23.4375C78.125 24.6807 77.6311 25.873 76.7521 26.7521C75.873 27.6311 74.6807 28.125 73.4375 28.125H71.875C71.875 33.9266 69.5703 39.4906 65.468 43.593C61.3656 47.6953 55.8016 50 50 50C44.1984 50 38.6344 47.6953 34.532 43.593C30.4297 39.4906 28.125 33.9266 28.125 28.125H26.5625C25.3193 28.125 24.127 27.6311 23.2479 26.7521C22.3689 25.873 21.875 24.6807 21.875 23.4375C21.875 22.1943 22.3689 21.002 23.2479 20.1229C24.127 19.2439 25.3193 18.75 26.5625 18.75H28.3437ZM50 40.625C46.6848 40.625 43.5054 39.308 41.1612 36.9638C38.817 34.6196 37.5 31.4402 37.5 28.125H62.5C62.5 31.4402 61.183 34.6196 58.8388 36.9638C56.4946 39.308 53.3152 40.625 50 40.625ZM15.625 78.125C15.625 76.85 17 73.0688 23.875 69.0063C24.334 68.736 24.7987 68.4755 25.2688 68.225L31.3125 84.375H21.875C20.2174 84.375 18.6277 83.7165 17.4556 82.5444C16.2835 81.3723 15.625 79.7826 15.625 78.125ZM41.3375 84.375L33.9687 64.7375C39.1803 63.2395 44.5775 62.4862 50 62.5C55.8125 62.5 61.25 63.3438 66.0312 64.7313L58.6688 84.375H41.3375ZM68.6813 84.375H78.125C79.7826 84.375 81.3723 83.7165 82.5444 82.5444C83.7165 81.3723 84.375 79.7826 84.375 78.125C84.375 76.85 83 73.0688 76.125 69.0063C75.666 68.736 75.2013 68.4755 74.7312 68.225L68.6813 84.375ZM50 53.125C25.9375 53.125 6.25 65.625 6.25 78.125C6.25 82.269 7.8962 86.2433 10.8265 89.1735C13.7567 92.1038 17.731 93.75 21.875 93.75H78.125C82.269 93.75 86.2433 92.1038 89.1735 89.1735C92.1038 86.2433 93.75 82.269 93.75 78.125C93.75 65.625 74.0625 53.125 50 53.125Z" fill="white"/>
</svg>
