<?xml version="1.0" encoding="UTF-8"?>
<!DOCTYPE svg PUBLIC "-//W3C//DTD SVG 1.1//EN" "http://www.w3.org/Graphics/SVG/1.1/DTD/svg11.dtd">
<svg xmlns="http://www.w3.org/2000/svg" version="1.1" width="500px" height="500px" style="shape-rendering:geometricPrecision; text-rendering:geometricPrecision; image-rendering:optimizeQuality; fill-rule:evenodd; clip-rule:evenodd" xmlns:xlink="http://www.w3.org/1999/xlink">
<g><path style="opacity:1" fill="#fefefe" d="M -0.5,-0.5 C 166.167,-0.5 332.833,-0.5 499.5,-0.5C 499.5,166.167 499.5,332.833 499.5,499.5C 332.833,499.5 166.167,499.5 -0.5,499.5C -0.5,332.833 -0.5,166.167 -0.5,-0.5 Z"/></g>
<g><path style="opacity:1" fill="#0e803b" d="M 239.5,105.5 C 260.982,102.867 275.482,111.533 283,131.5C 283.499,135.486 283.666,139.486 283.5,143.5C 280.5,143.5 277.5,143.5 274.5,143.5C 274.288,126.287 265.621,116.62 248.5,114.5C 231.234,116.434 222.901,126.101 223.5,143.5C 220.167,143.5 216.833,143.5 213.5,143.5C 213.891,125.118 222.558,112.452 239.5,105.5 Z"/></g>
<g><path style="opacity:1" fill="#97d17f" d="M 213.5,151.5 C 201.988,151.172 190.654,151.505 179.5,152.5C 178.957,152.44 178.624,152.107 178.5,151.5C 190.327,150.176 201.993,150.176 213.5,151.5 Z"/></g>
<g><path style="opacity:1" fill="#84bc9c" d="M 333.5,151.5 C 304.995,151.169 276.662,151.502 248.5,152.5C 247.711,152.217 247.044,151.717 246.5,151C 275.67,150.17 304.67,150.336 333.5,151.5 Z"/></g>
<g><path style="opacity:1" fill="#10773f" d="M 248.5,152.5 C 276.662,151.502 304.995,151.169 333.5,151.5C 332.871,154.397 331.871,157.064 330.5,159.5C 330.674,157.139 331.007,154.806 331.5,152.5C 304.661,152.169 277.995,152.502 251.5,153.5C 250.391,153.443 249.391,153.11 248.5,152.5 Z"/></g>
<g><path style="opacity:1" fill="#047f37" d="M 330.5,159.5 C 322.31,186.906 313.81,214.239 305,241.5C 303.713,229.898 301.213,218.565 297.5,207.5C 291.112,190.06 280.779,175.393 266.5,163.5C 261.979,159.409 256.979,156.076 251.5,153.5C 277.995,152.502 304.661,152.169 331.5,152.5C 331.007,154.806 330.674,157.139 330.5,159.5 Z"/></g>
<g><path style="opacity:1" fill="#c7e9bb" d="M 229.5,153.5 C 231.898,153.259 233.898,153.926 235.5,155.5C 233.102,155.741 231.102,155.074 229.5,153.5 Z"/></g>
<g><path style="opacity:1" fill="#e7fad8" d="M 236.5,155.5 C 239.568,155.547 242.568,156.047 245.5,157C 246.252,157.671 246.586,158.504 246.5,159.5C 243.011,158.342 239.678,157.009 236.5,155.5 Z"/></g>
<g><path style="opacity:1" fill="#8fd76f" d="M 265.5,172.5 C 267.053,174.385 269.053,175.385 271.5,175.5C 271.704,177.685 272.37,179.685 273.5,181.5C 271.321,180.897 269.154,180.23 267,179.5C 266.56,177.134 266.06,174.801 265.5,172.5 Z"/></g>
<g><path style="opacity:1" fill="#7fd957" d="M 179.5,152.5 C 190.654,151.505 201.988,151.172 213.5,151.5C 218.833,152.167 224.167,152.833 229.5,153.5C 231.102,155.074 233.102,155.741 235.5,155.5C 235.833,155.5 236.167,155.5 236.5,155.5C 239.678,157.009 243.011,158.342 246.5,159.5C 246.833,159.5 247.167,159.5 247.5,159.5C 253.781,163.32 259.781,167.654 265.5,172.5C 266.06,174.801 266.56,177.134 267,179.5C 269.154,180.23 271.321,180.897 273.5,181.5C 281.141,189.113 286.474,198.113 289.5,208.5C 290.402,213.482 290.569,218.482 290,223.5C 290.29,221.956 290.956,220.623 292,219.5C 292.409,224.309 293.409,228.976 295,233.5C 295.595,246.178 295.428,258.845 294.5,271.5C 293.525,274.311 292.858,277.311 292.5,280.5C 291.222,280.218 290.222,279.551 289.5,278.5C 284.504,254.175 270.171,238.509 246.5,231.5C 244.485,230.076 242.152,229.41 239.5,229.5C 233.999,228.439 228.666,227.105 223.5,225.5C 221.898,223.926 219.898,223.259 217.5,223.5C 217.167,223.5 216.833,223.5 216.5,223.5C 216.5,222.5 216.5,221.5 216.5,220.5C 211.397,219.879 206.397,218.879 201.5,217.5C 196.214,214.212 191.214,210.546 186.5,206.5C 183.425,201.357 180.092,196.357 176.5,191.5C 172.782,181.345 169.449,171.012 166.5,160.5C 167.365,159.417 168.365,159.251 169.5,160C 178.203,170.541 188.536,179.041 200.5,185.5C 204.69,188.145 209.023,190.645 213.5,193C 223.505,196.337 233.505,199.67 243.5,203C 245.5,203.667 247.5,203.667 249.5,203C 237.629,196.724 225.963,189.89 214.5,182.5C 208.927,177.561 202.927,173.061 196.5,169C 190.938,163.27 185.271,157.77 179.5,152.5 Z"/></g>
<g><path style="opacity:1" fill="#f3fbf3" d="M 247.5,159.5 C 253.482,161.38 258.815,164.38 263.5,168.5C 265.262,167.312 266.262,165.645 266.5,163.5C 280.779,175.393 291.112,190.06 297.5,207.5C 296.414,207.62 295.747,208.287 295.5,209.5C 296.528,211.56 296.528,213.56 295.5,215.5C 294.574,212.956 293.574,210.456 292.5,208C 294.576,206.116 294.91,203.949 293.5,201.5C 292.048,203.641 291.048,205.975 290.5,208.5C 290.167,208.5 289.833,208.5 289.5,208.5C 286.474,198.113 281.141,189.113 273.5,181.5C 272.37,179.685 271.704,177.685 271.5,175.5C 269.053,175.385 267.053,174.385 265.5,172.5C 259.781,167.654 253.781,163.32 247.5,159.5 Z"/></g>
<g><path style="opacity:1" fill="#f6fcf3" d="M 214.5,182.5 C 225.963,189.89 237.629,196.724 249.5,203C 247.5,203.667 245.5,203.667 243.5,203C 233.505,199.67 223.505,196.337 213.5,193C 209.023,190.645 204.69,188.145 200.5,185.5C 201.873,185.657 203.207,185.49 204.5,185C 204.167,184.667 203.833,184.333 203.5,184C 205.334,181.976 207.001,182.142 208.5,184.5C 207.754,185.736 207.421,187.07 207.5,188.5C 209.527,188.662 211.527,188.495 213.5,188C 214.815,186.605 214.481,185.605 212.5,185C 213.756,184.583 214.423,183.75 214.5,182.5 Z"/></g>
<g><path style="opacity:1" fill="#f5fcf6" d="M 186.5,206.5 C 191.214,210.546 196.214,214.212 201.5,217.5C 205.957,220.657 210.957,222.657 216.5,223.5C 216.833,223.5 217.167,223.5 217.5,223.5C 219.102,225.074 221.102,225.741 223.5,225.5C 228.666,227.105 233.999,228.439 239.5,229.5C 241.515,230.924 243.848,231.59 246.5,231.5C 270.171,238.509 284.504,254.175 289.5,278.5C 288.685,277.571 287.852,276.571 287,275.5C 287.369,278.79 287.369,282.123 287,285.5C 285.606,277.78 284.772,278.114 284.5,286.5C 258.259,286.172 232.092,286.505 206,287.5C 205.51,286.207 205.343,284.873 205.5,283.5C 231.273,285.477 257.273,286.143 283.5,285.5C 281.921,265.104 271.921,250.604 253.5,242C 237.016,237.463 220.683,232.463 204.5,227C 197.178,224.149 190.844,219.982 185.5,214.5C 187.346,214.778 188.68,214.111 189.5,212.5C 188.441,210.466 187.441,208.466 186.5,206.5 Z"/></g>
<g><path style="opacity:1" fill="#92d870" d="M 201.5,217.5 C 206.397,218.879 211.397,219.879 216.5,220.5C 216.5,221.5 216.5,222.5 216.5,223.5C 210.957,222.657 205.957,220.657 201.5,217.5 Z"/></g>
<g><path style="opacity:1" fill="#088038" d="M 185.5,214.5 C 190.844,219.982 197.178,224.149 204.5,227C 220.683,232.463 237.016,237.463 253.5,242C 271.921,250.604 281.921,265.104 283.5,285.5C 257.273,286.143 231.273,285.477 205.5,283.5C 198.891,260.903 191.891,238.403 184.5,216C 184.57,215.235 184.903,214.735 185.5,214.5 Z"/></g>
<g><path style="opacity:1" fill="#a0db8d" d="M 217.5,223.5 C 219.898,223.259 221.898,223.926 223.5,225.5C 221.102,225.741 219.102,225.074 217.5,223.5 Z"/></g>
<g><path style="opacity:1" fill="#a4e094" d="M 239.5,229.5 C 242.152,229.41 244.485,230.076 246.5,231.5C 243.848,231.59 241.515,230.924 239.5,229.5 Z"/></g>
<g><path style="opacity:1" fill="#93d576" d="M 289.5,208.5 C 289.833,208.5 290.167,208.5 290.5,208.5C 296.844,229.247 298.178,250.247 294.5,271.5C 295.428,258.845 295.595,246.178 295,233.5C 293.409,228.976 292.409,224.309 292,219.5C 290.956,220.623 290.29,221.956 290,223.5C 290.569,218.482 290.402,213.482 289.5,208.5 Z"/></g>
<g><path style="opacity:1" fill="#b6e2a1" d="M 289.5,278.5 C 290.222,279.551 291.222,280.218 292.5,280.5C 292.179,282.048 291.179,282.715 289.5,282.5C 289.5,281.167 289.5,279.833 289.5,278.5 Z"/></g>
<g><path style="opacity:1" fill="#3c8d60" d="M 356.5,319.5 C 351.159,318.26 345.826,318.26 340.5,319.5C 342.634,317.967 345.134,317.3 348,317.5C 351.15,317.36 353.983,318.027 356.5,319.5 Z"/></g>
<g><path style="opacity:1" fill="#469565" d="M 183.5,325.5 C 186.625,324.521 189.958,324.187 193.5,324.5C 193.5,322.833 193.5,321.167 193.5,319.5C 184.167,319.5 174.833,319.5 165.5,319.5C 165.286,321.144 165.62,322.644 166.5,324C 169.695,324.181 172.695,324.681 175.5,325.5C 171.5,325.5 167.5,325.5 163.5,325.5C 163.232,322.881 163.565,320.381 164.5,318C 174.494,317.5 184.494,317.334 194.5,317.5C 194.5,320.167 194.5,322.833 194.5,325.5C 190.833,325.5 187.167,325.5 183.5,325.5 Z"/></g>
<g><path style="opacity:1" fill="#1c7b45" d="M 257.5,325.5 C 260.625,324.521 263.958,324.187 267.5,324.5C 267.5,322.833 267.5,321.167 267.5,319.5C 263.449,319.077 259.616,319.744 256,321.5C 250.69,319.659 245.19,318.992 239.5,319.5C 239.5,320.833 239.5,322.167 239.5,323.5C 241.527,323.662 243.527,323.495 245.5,323C 244.304,322.346 244.304,321.846 245.5,321.5C 246.914,322.624 248.414,323.624 250,324.5C 250.5,335.161 250.667,345.828 250.5,356.5C 252.467,356.739 254.301,356.406 256,355.5C 256.17,345.658 256.67,335.991 257.5,326.5C 257.5,337.167 257.5,347.833 257.5,358.5C 254.833,358.5 252.167,358.5 249.5,358.5C 249.5,347.5 249.5,336.5 249.5,325.5C 245.833,325.5 242.167,325.5 238.5,325.5C 238.5,323.167 238.5,320.833 238.5,318.5C 248.5,318.5 258.5,318.5 268.5,318.5C 268.5,320.833 268.5,323.167 268.5,325.5C 264.833,325.5 261.167,325.5 257.5,325.5 Z"/></g>
<g><path style="opacity:1" fill="#2d874f" d="M 137.5,318.5 C 140.5,318.5 143.5,318.5 146.5,318.5C 146.5,331.833 146.5,345.167 146.5,358.5C 143.5,358.5 140.5,358.5 137.5,358.5C 137.5,345.167 137.5,331.833 137.5,318.5 Z"/></g>
<g><path style="opacity:1" fill="#007f35" d="M 139.5,319.5 C 141.167,319.5 142.833,319.5 144.5,319.5C 144.5,331.833 144.5,344.167 144.5,356.5C 142.833,356.5 141.167,356.5 139.5,356.5C 139.5,344.167 139.5,331.833 139.5,319.5 Z"/></g>
<g><path style="opacity:1" fill="#047f37" d="M 183.5,325.5 C 183.5,336.5 183.5,347.5 183.5,358.5C 180.833,358.5 178.167,358.5 175.5,358.5C 175.5,347.5 175.5,336.5 175.5,325.5C 172.695,324.681 169.695,324.181 166.5,324C 165.62,322.644 165.286,321.144 165.5,319.5C 174.833,319.5 184.167,319.5 193.5,319.5C 193.5,321.167 193.5,322.833 193.5,324.5C 189.958,324.187 186.625,324.521 183.5,325.5 Z"/></g>
<g><path style="opacity:1" fill="#14743d" d="M 212.5,318.5 C 215.167,318.5 217.833,318.5 220.5,318.5C 220.5,331.833 220.5,345.167 220.5,358.5C 217.833,358.5 215.167,358.5 212.5,358.5C 212.5,345.167 212.5,331.833 212.5,318.5 Z"/></g>
<g><path style="opacity:1" fill="#017f36" d="M 213.5,319.5 C 215.5,319.5 217.5,319.5 219.5,319.5C 219.728,331.859 219.395,344.193 218.5,356.5C 216.833,356.5 215.167,356.5 213.5,356.5C 213.5,344.167 213.5,331.833 213.5,319.5 Z"/></g>
<g><path style="opacity:1" fill="#018036" d="M 257.5,325.5 C 257.5,325.833 257.5,326.167 257.5,326.5C 256.67,335.991 256.17,345.658 256,355.5C 254.301,356.406 252.467,356.739 250.5,356.5C 250.667,345.828 250.5,335.161 250,324.5C 248.414,323.624 246.914,322.624 245.5,321.5C 244.304,321.846 244.304,322.346 245.5,323C 243.527,323.495 241.527,323.662 239.5,323.5C 239.5,322.167 239.5,320.833 239.5,319.5C 245.19,318.992 250.69,319.659 256,321.5C 259.616,319.744 263.449,319.077 267.5,319.5C 267.5,321.167 267.5,322.833 267.5,324.5C 263.958,324.187 260.625,324.521 257.5,325.5 Z"/></g>
<g><path style="opacity:1" fill="#399260" d="M 399.5,319.5 C 395.833,319.5 392.167,319.5 388.5,319.5C 388.969,322.393 387.969,324.393 385.5,325.5C 386.75,322.994 387.416,320.327 387.5,317.5C 391.182,317.335 394.848,317.501 398.5,318C 399.056,318.383 399.389,318.883 399.5,319.5 Z"/></g>
<g><path style="opacity:1" fill="#117f3c" d="M 295.5,317.5 C 299.106,317.211 302.606,317.544 306,318.5C 310.813,331.774 315.313,345.108 319.5,358.5C 316.5,358.5 313.5,358.5 310.5,358.5C 309.978,355.432 309.145,352.432 308,349.5C 303.252,348.365 298.419,348.198 293.5,349C 291.998,352.005 290.998,355.171 290.5,358.5C 287.5,358.5 284.5,358.5 281.5,358.5C 285.768,344.697 290.434,331.031 295.5,317.5 Z"/></g>
<g><path style="opacity:1" fill="#11803c" d="M 356.5,319.5 C 357.5,319.5 358.5,319.5 359.5,319.5C 359.326,321.861 358.993,324.194 358.5,326.5C 354.966,326.076 351.466,325.409 348,324.5C 343.668,325.444 342.501,327.944 344.5,332C 350.05,334.072 354.883,337.239 359,341.5C 362.513,349.276 360.346,354.776 352.5,358C 346.29,359.021 340.29,358.521 334.5,356.5C 334.198,353.941 334.532,351.607 335.5,349.5C 340.317,351.408 345.317,351.908 350.5,351C 351.982,348.408 351.648,346.075 349.5,344C 343.325,341.686 338.491,337.853 335,332.5C 334.299,329.072 334.632,325.738 336,322.5C 337.129,320.859 338.629,319.859 340.5,319.5C 345.826,318.26 351.159,318.26 356.5,319.5 Z"/></g>
<g><path style="opacity:1" fill="#e9f8f0" d="M 299.5,325.5 C 300.497,325.47 301.164,325.97 301.5,327C 302.942,331.823 304.275,336.656 305.5,341.5C 302.102,341.82 298.768,341.487 295.5,340.5C 297.247,335.594 298.581,330.594 299.5,325.5 Z"/></g>
<g><path style="opacity:1" fill="#13803d" d="M 399.5,319.5 C 404.133,332.426 408.467,345.426 412.5,358.5C 409.5,358.5 406.5,358.5 403.5,358.5C 402.978,355.432 402.145,352.432 401,349.5C 396.252,348.365 391.419,348.198 386.5,349C 384.998,352.005 383.998,355.171 383.5,358.5C 380.5,358.5 377.5,358.5 374.5,358.5C 377.568,347.296 381.235,336.296 385.5,325.5C 387.969,324.393 388.969,322.393 388.5,319.5C 392.167,319.5 395.833,319.5 399.5,319.5 Z"/></g>
<g><path style="opacity:1" fill="#ebf8f0" d="M 392.5,325.5 C 393.497,325.47 394.164,325.97 394.5,327C 395.942,331.823 397.275,336.656 398.5,341.5C 395.102,341.82 391.768,341.487 388.5,340.5C 390.245,335.6 391.578,330.6 392.5,325.5 Z"/></g>
<g><path style="opacity:1" fill="#127d3e" d="M 91.5,318.5 C 98.175,318.334 104.842,318.5 111.5,319C 114.333,320.5 116.5,322.667 118,325.5C 119.926,339.41 113.759,345.744 99.5,344.5C 99.5,349.167 99.5,353.833 99.5,358.5C 96.8333,358.5 94.1667,358.5 91.5,358.5C 91.5,345.167 91.5,331.833 91.5,318.5 Z"/></g>
<g><path style="opacity:1" fill="#bce6ca" d="M 99.5,325.5 C 99.8333,325.5 100.167,325.5 100.5,325.5C 100.5,329.167 100.5,332.833 100.5,336.5C 102.167,336.5 103.833,336.5 105.5,336.5C 103.735,337.461 101.735,337.795 99.5,337.5C 99.5,333.5 99.5,329.5 99.5,325.5 Z"/></g>
<g><path style="opacity:1" fill="#f9fcfa" d="M 100.5,325.5 C 107.327,324.174 110.494,326.84 110,333.5C 108.871,335.141 107.371,336.141 105.5,336.5C 103.833,336.5 102.167,336.5 100.5,336.5C 100.5,332.833 100.5,329.167 100.5,325.5 Z"/></g>
<g><path style="opacity:1" fill="#028036" d="M 99.5,325.5 C 98.5139,329.97 98.1805,334.637 98.5,339.5C 97.5,339.5 96.5,339.5 95.5,339.5C 95.4609,341.359 96.2942,342.692 98,343.5C 98.499,347.821 98.6657,352.154 98.5,356.5C 96.5,356.5 94.5,356.5 92.5,356.5C 92.5,344.167 92.5,331.833 92.5,319.5C 97.1667,319.5 101.833,319.5 106.5,319.5C 106.5,321.167 106.5,322.833 106.5,324.5C 103.941,324.198 101.607,324.532 99.5,325.5 Z"/></g>
<g><path style="opacity:1" fill="#8fc7ad" d="M 335.5,349.5 C 334.532,351.607 334.198,353.941 334.5,356.5C 333.2,353.976 333.2,351.309 334.5,348.5C 335.107,348.624 335.44,348.957 335.5,349.5 Z"/></g>
<g><path style="opacity:1" fill="#87a375" d="M 237.5,378.5 C 240.685,378.02 243.519,378.686 246,380.5C 246.668,385.329 244.501,387.329 239.5,386.5C 239.719,387.675 239.386,388.675 238.5,389.5C 237.511,385.893 237.177,382.226 237.5,378.5 Z"/></g>
<g><path style="opacity:1" fill="#7fa16a" d="M 165.5,378.5 C 167.75,378.181 169.75,378.681 171.5,380C 170.328,380.353 169.162,380.187 168,379.5C 166.72,379.613 165.887,380.28 165.5,381.5C 166.991,383.012 168.824,384.012 171,384.5C 171.72,386.112 171.554,387.612 170.5,389C 167.947,389.851 165.614,389.518 163.5,388C 171.241,387.402 171.407,385.902 164,383.5C 163.387,381.505 163.887,379.838 165.5,378.5 Z"/></g>
<g><path style="opacity:1" fill="#779b66" d="M 210.5,378.5 C 212.796,380.401 214.629,382.734 216,385.5C 217.844,383.128 219.678,380.794 221.5,378.5C 222.833,382.167 222.833,385.833 221.5,389.5C 220.686,387.234 220.186,384.9 220,382.5C 218.667,384.5 217.333,386.5 216,388.5C 212.985,381.515 211.318,381.849 211,389.5C 210.501,385.848 210.335,382.182 210.5,378.5 Z"/></g>
<g><path style="opacity:1" fill="#82a16d" d="M 412.5,378.5 C 412.611,379.117 412.944,379.617 413.5,380C 411.1,380.186 408.766,380.686 406.5,381.5C 404.641,386.926 406.641,388.926 412.5,387.5C 413.045,383.828 413.378,384.162 413.5,388.5C 405.677,390.841 403.01,388.008 405.5,380C 407.677,378.798 410.011,378.298 412.5,378.5 Z"/></g>
<g><path style="opacity:1" fill="#799668" d="M 78.5,378.5 C 79.3764,378.369 80.0431,378.702 80.5,379.5C 81.5587,382.618 82.8921,385.618 84.5,388.5C 84.1667,388.833 83.8333,389.167 83.5,389.5C 82.6143,388.675 82.281,387.675 82.5,386.5C 80.4727,386.338 78.4727,386.505 76.5,387C 75.9323,388.604 74.9323,389.27 73.5,389C 75.0727,385.445 76.7394,381.945 78.5,378.5 Z"/></g>
<g><path style="opacity:1" fill="#7a9f6a" d="M 98.5,378.5 C 101.41,380.239 103.91,382.572 106,385.5C 106.186,383.1 106.686,380.766 107.5,378.5C 108.833,382.167 108.833,385.833 107.5,389.5C 105.343,387.208 103.176,384.875 101,382.5C 100.814,384.9 100.314,387.234 99.5,389.5C 98.5108,385.893 98.1774,382.226 98.5,378.5 Z"/></g>
<g><path style="opacity:1" fill="#7b9b67" d="M 124.5,378.5 C 125.309,380.292 125.809,382.292 126,384.5C 128.064,381.726 130.564,379.893 133.5,379C 128.411,382.213 128.411,385.546 133.5,389C 132.833,389.667 132.167,389.667 131.5,389C 128.643,384.269 126.476,384.436 125,389.5C 124.501,385.848 124.335,382.182 124.5,378.5 Z"/></g>
<g><path style="opacity:1" fill="#f1fde7" d="M 239.5,380.5 C 241.167,380.5 242.833,380.5 244.5,380.5C 244.5,381.833 244.5,383.167 244.5,384.5C 242.833,384.5 241.167,384.5 239.5,384.5C 239.5,383.167 239.5,381.833 239.5,380.5 Z"/></g>
<g><path style="opacity:1" fill="#7b976a" d="M 389.5,387.5 C 389.5,388.167 389.5,388.833 389.5,389.5C 388.078,389.25 387.078,388.417 386.5,387C 385.207,386.51 383.873,386.343 382.5,386.5C 381.276,386.121 380.943,383.454 381.5,378.5C 383.92,378.292 386.253,378.626 388.5,379.5C 389.91,381.949 389.576,384.116 387.5,386C 388.044,386.717 388.711,387.217 389.5,387.5 Z"/></g>
<g><path style="opacity:1" fill="#e3fce5" d="M 78.5,380.5 C 79.6006,381.848 80.6006,383.348 81.5,385C 80.0563,385.781 78.723,385.614 77.5,384.5C 78.2458,383.264 78.5792,381.93 78.5,380.5 Z"/></g>
<g><path style="opacity:1" fill="#759962" d="M 326.5,378.5 C 328.192,380.514 329.525,382.848 330.5,385.5C 331.688,383.012 333.021,380.678 334.5,378.5C 335.937,381.041 337.103,383.708 338,386.5C 339.072,383.782 340.238,381.115 341.5,378.5C 341.6,382.241 340.6,385.907 338.5,389.5C 336.727,387.047 335.227,384.381 334,381.5C 333.311,384.408 332.145,387.075 330.5,389.5C 328.371,386.113 327.038,382.447 326.5,378.5 Z"/></g>
<g><path style="opacity:1" fill="#769264" d="M 189.5,378.5 C 190.496,378.414 191.329,378.748 192,379.5C 193.504,382.684 195.004,385.851 196.5,389C 194.928,387.705 192.928,386.872 190.5,386.5C 188.42,386.686 186.92,387.686 186,389.5C 186.545,385.717 187.712,382.05 189.5,378.5 Z"/></g>
<g><path style="opacity:1" fill="#e7fcdc" d="M 190.5,380.5 C 191.339,381.641 192.006,382.974 192.5,384.5C 191.277,385.614 189.944,385.781 188.5,385C 189.267,383.53 189.933,382.03 190.5,380.5 Z"/></g>
<g><path style="opacity:1" fill="#769263" d="M 432.5,378.5 C 433.376,378.369 434.043,378.702 434.5,379.5C 436.039,382.746 437.706,385.912 439.5,389C 437.618,388.307 435.618,387.474 433.5,386.5C 431.382,387.474 429.382,388.307 427.5,389C 429.582,385.671 431.248,382.171 432.5,378.5 Z"/></g>
<g><path style="opacity:1" fill="#e5f9e2" d="M 432.5,381.5 C 434.121,381.787 435.121,382.787 435.5,384.5C 434.167,385.833 432.833,385.833 431.5,384.5C 432.127,383.583 432.461,382.583 432.5,381.5 Z"/></g>
<g><path style="opacity:1" fill="#72995c" d="M 264.5,378.5 C 265.376,378.369 266.043,378.702 266.5,379.5C 268.45,382.515 270.116,385.681 271.5,389C 269.618,388.307 267.618,387.474 265.5,386.5C 263.382,387.474 261.382,388.307 259.5,389C 261.582,385.671 263.248,382.171 264.5,378.5 Z"/></g>
<g><path style="opacity:1" fill="#ecf8de" d="M 264.5,381.5 C 266.121,381.787 267.121,382.787 267.5,384.5C 266.167,385.833 264.833,385.833 263.5,384.5C 264.127,383.583 264.461,382.583 264.5,381.5 Z"/></g>
<g><path style="opacity:1" fill="#6a9056" d="M 287.5,378.5 C 287.5,380.167 287.5,381.833 287.5,383.5C 289.5,383.5 291.5,383.5 293.5,383.5C 294.693,379.852 294.693,381.852 293.5,389.5C 293.5,387.833 293.5,386.167 293.5,384.5C 291.167,384.5 288.833,384.5 286.5,384.5C 286.122,391.015 285.788,390.848 285.5,384C 285.547,381.705 286.213,379.871 287.5,378.5 Z"/></g>
<g><path style="opacity:1" fill="#e2f4d8" d="M 412.5,378.5 C 413.5,378.5 414.5,378.5 415.5,378.5C 415.5,379.5 415.5,380.5 415.5,381.5C 412.833,381.5 410.167,381.5 407.5,381.5C 407.5,383.167 407.5,384.833 407.5,386.5C 408.833,386.5 410.167,386.5 411.5,386.5C 411.5,385.5 411.5,384.5 411.5,383.5C 412.833,383.5 414.167,383.5 415.5,383.5C 415.923,385.781 415.256,387.448 413.5,388.5C 413.378,384.162 413.045,383.828 412.5,387.5C 406.641,388.926 404.641,386.926 406.5,381.5C 408.766,380.686 411.1,380.186 413.5,380C 412.944,379.617 412.611,379.117 412.5,378.5 Z"/></g>
<g><path style="opacity:1" fill="#74995e" d="M 360.5,378.5 C 361.376,378.369 362.043,378.702 362.5,379.5C 364.502,382.623 365.669,385.956 366,389.5C 362.8,385.564 359.633,385.564 356.5,389.5C 356.958,385.813 358.291,382.146 360.5,378.5 Z"/></g>
<g><path style="opacity:1" fill="#ecfae1" d="M 360.5,380.5 C 361.601,381.848 362.601,383.348 363.5,385C 362.056,385.781 360.723,385.614 359.5,384.5C 360.246,383.264 360.579,381.93 360.5,380.5 Z"/></g>
<g><path style="opacity:1" fill="#759e64" d="M 50.5,378.5 C 51.8734,378.343 53.2068,378.51 54.5,379C 52.8934,380.049 52.2267,381.549 52.5,383.5C 54.1667,383.5 55.8333,383.5 57.5,383.5C 57.238,382.022 57.5713,380.689 58.5,379.5C 62.9676,388.372 60.3009,391.706 50.5,389.5C 50.5,385.833 50.5,382.167 50.5,378.5 Z"/></g>
<g><path style="opacity:1" fill="#f2fde5" d="M 52.5,384.5 C 54.9775,384.051 56.9775,384.717 58.5,386.5C 56.604,387.466 54.604,387.799 52.5,387.5C 52.5,386.5 52.5,385.5 52.5,384.5 Z"/></g>
<g><path style="opacity:1" fill="#e7f7df" d="M 287.5,378.5 C 286.213,379.871 285.547,381.705 285.5,384C 285.788,390.848 286.122,391.015 286.5,384.5C 288.833,384.5 291.167,384.5 293.5,384.5C 293.5,386.167 293.5,387.833 293.5,389.5C 292.566,388.432 292.232,387.099 292.5,385.5C 290.833,385.5 289.167,385.5 287.5,385.5C 287.663,387.857 287.497,390.19 287,392.5C 283.201,387.985 282.534,382.985 285,377.5C 286.461,376.117 287.294,376.451 287.5,378.5 Z"/></g>
<g><path style="opacity:1" fill="#f1fae9" d="M 389.5,387.5 C 388.711,387.217 388.044,386.717 387.5,386C 389.576,384.116 389.91,381.949 388.5,379.5C 386.253,378.626 383.92,378.292 381.5,378.5C 380.943,383.454 381.276,386.121 382.5,386.5C 383.873,386.343 385.207,386.51 386.5,387C 387.078,388.417 388.078,389.25 389.5,389.5C 387.117,393.81 385.45,393.477 384.5,388.5C 383.614,389.325 383.281,390.325 383.5,391.5C 381.089,391.863 379.589,390.863 379,388.5C 378.421,384.797 378.588,381.131 379.5,377.5C 383.672,376.535 387.672,377.202 391.5,379.5C 391.931,380.293 392.265,381.127 392.5,382C 391.152,383.683 390.152,385.517 389.5,387.5 Z"/></g>
<g><path style="opacity:1" fill="#e7fcdf" d="M 382.5,380.5 C 384.977,380.051 386.977,380.717 388.5,382.5C 386.977,384.283 384.977,384.949 382.5,384.5C 382.5,383.167 382.5,381.833 382.5,380.5 Z"/></g>
<g><path style="opacity:1" fill="#779c64" d="M 204.5,399.5 C 210.83,398.666 213.663,401.333 213,407.5C 209.952,411.01 206.619,411.343 203,408.5C 202.068,405.177 202.568,402.177 204.5,399.5 Z"/></g>
<g><path style="opacity:1" fill="#6f985a" d="M 245.5,399.5 C 251.101,398.064 254.434,400.064 255.5,405.5C 253.82,410.025 250.487,411.692 245.5,410.5C 245.5,406.833 245.5,403.167 245.5,399.5 Z"/></g>
<g><path style="opacity:1" fill="#7fac65" d="M 328.5,399.5 C 331.572,399.183 334.572,399.516 337.5,400.5C 336.311,401.429 334.978,401.762 333.5,401.5C 332.833,413.5 332.167,413.5 331.5,401.5C 329.821,401.715 328.821,401.048 328.5,399.5 Z"/></g>
<g><path style="opacity:1" fill="#628652" d="M 376.5,399.5 C 376.5,402.833 376.5,406.167 376.5,409.5C 378.5,409.5 380.5,409.5 382.5,409.5C 380.393,410.468 378.059,410.802 375.5,410.5C 375.185,406.629 375.518,402.962 376.5,399.5 Z"/></g>
<g><path style="opacity:1" fill="#c1e1af" d="M 250.5,401.5 C 249.5,401.5 248.5,401.5 247.5,401.5C 247.5,403.833 247.5,406.167 247.5,408.5C 248.833,408.5 250.167,408.5 251.5,408.5C 250.081,409.451 248.415,409.784 246.5,409.5C 246.5,406.5 246.5,403.5 246.5,400.5C 248.099,400.232 249.432,400.566 250.5,401.5 Z"/></g>
<g><path style="opacity:1" fill="#74a060" d="M 179.5,399.5 C 181.857,399.337 184.19,399.503 186.5,400C 187.982,402.592 187.648,404.925 185.5,407C 188.085,410.837 187.751,411.171 184.5,408C 183.207,407.51 181.873,407.343 180.5,407.5C 179.276,407.121 178.943,404.454 179.5,399.5 Z"/></g>
<g><path style="opacity:1" fill="#f1fbea" d="M 181.5,401.5 C 183.665,401.116 185.332,401.783 186.5,403.5C 185.332,405.217 183.665,405.884 181.5,405.5C 181.5,404.167 181.5,402.833 181.5,401.5 Z"/></g>
<g><path style="opacity:1" fill="#eff9eb" d="M 204.5,401.5 C 211.536,400.603 213.203,403.103 209.5,409C 203.779,409.365 202.113,406.865 204.5,401.5 Z"/></g>
<g><path style="opacity:1" fill="#71945f" d="M 107.5,399.5 C 109.407,401.597 111.241,403.931 113,406.5C 114.421,403.991 116.088,401.657 118,399.5C 118.667,403.167 118.667,406.833 118,410.5C 117.667,408.167 117.333,405.833 117,403.5C 115.667,405.5 114.333,407.5 113,409.5C 111.667,407.5 110.333,405.5 109,403.5C 108.667,405.833 108.333,408.167 108,410.5C 107.501,406.848 107.335,403.182 107.5,399.5 Z"/></g>
<g><path style="opacity:1" fill="#69a050" d="M 155.5,400.5 C 159.919,399.082 161.919,399.082 161.5,400.5C 160.833,413.833 160.167,413.833 159.5,400.5C 158.167,400.5 156.833,400.5 155.5,400.5 Z"/></g>
<g><path style="opacity:1" fill="#729862" d="M 353.5,399.5 C 354.675,399.281 355.675,399.614 356.5,400.5C 358.577,403.624 359.743,406.958 360,410.5C 359.08,408.686 357.58,407.686 355.5,407.5C 353.072,407.872 351.072,408.705 349.5,410C 351.33,406.676 352.663,403.176 353.5,399.5 Z"/></g>
<g><path style="opacity:1" fill="#e4fcd7" d="M 354.5,401.5 C 358.161,404.85 357.828,406.517 353.5,406.5C 353.629,404.784 353.962,403.117 354.5,401.5 Z"/></g>
<g><path style="opacity:1" fill="#f6fdf3" d="M 250.5,401.5 C 252.722,401.559 253.722,402.725 253.5,405C 253.613,406.699 252.947,407.866 251.5,408.5C 250.167,408.5 248.833,408.5 247.5,408.5C 247.5,406.167 247.5,403.833 247.5,401.5C 248.5,401.5 249.5,401.5 250.5,401.5 Z"/></g>
<g><path style="opacity:1" fill="#e8f8e0" d="M 376.5,399.5 C 378.344,401.279 379.01,403.612 378.5,406.5C 379.833,406.5 381.167,406.5 382.5,406.5C 382.5,407.5 382.5,408.5 382.5,409.5C 380.5,409.5 378.5,409.5 376.5,409.5C 376.5,406.167 376.5,402.833 376.5,399.5 Z"/></g>
<g><path style="opacity:1" fill="#749963" d="M 134.5,399.5 C 137.247,399.187 139.914,399.52 142.5,400.5C 140.604,401.466 138.604,401.799 136.5,401.5C 136.5,402.5 136.5,403.5 136.5,404.5C 143.167,404.833 143.167,405.167 136.5,405.5C 136.5,406.833 136.5,408.167 136.5,409.5C 138.527,409.338 140.527,409.505 142.5,410C 139.854,410.497 137.187,410.664 134.5,410.5C 134.5,406.833 134.5,403.167 134.5,399.5 Z"/></g>
<g><path style="opacity:1" fill="#83a86f" d="M 289.5,399.5 C 297.839,399.959 298.173,400.793 290.5,402C 287.143,407.503 288.81,409.669 295.5,408.5C 295.281,407.325 295.614,406.325 296.5,405.5C 297.83,407.347 297.497,408.847 295.5,410C 288.44,411.271 285.94,408.438 288,401.5C 288.717,400.956 289.217,400.289 289.5,399.5 Z"/></g>
</svg>
